<svg xmlns:xlink="http://www.w3.org/1999/xlink" class="mx-auto h-8 w-8 text-gray-900" viewBox="0 0 24 24" fill="currentColor" xmlns="http://www.w3.org/2000/svg" width="32"  height="32" ><rect opacity="0.12" x="2" y="2" width="20" height="20" rx="5" fill="#171717"></rect><path fill-rule="evenodd" clip-rule="evenodd" d="M10 1.25L9.96644 1.25C8.59472 1.25 7.51929 1.24999 6.65494 1.32061C5.77479 1.39252 5.04769 1.54138 4.38955 1.87671C3.30762 2.42798 2.42798 3.30762 1.87671 4.38955C1.54138 5.04769 1.39252 5.77479 1.32061 6.65494C1.24999 7.51929 1.25 8.59472 1.25 9.96644L1.25 10V14L1.25 14.0336C1.25 15.4053 1.24999 16.4807 1.32061 17.3451C1.39252 18.2252 1.54138 18.9523 1.87671 19.6104C2.42798 20.6924 3.30762 21.572 4.38955 22.1233C5.04769 22.4586 5.77479 22.6075 6.65494 22.6794C7.51927 22.75 8.59469 22.75 9.96637 22.75H9.96642H10H14H14.0336H14.0336C15.4053 22.75 16.4807 22.75 17.3451 22.6794C18.2252 22.6075 18.9523 22.4586 19.6104 22.1233C20.6924 21.572 21.572 20.6924 22.1233 19.6104C22.4586 18.9523 22.6075 18.2252 22.6794 17.3451C22.75 16.4807 22.75 15.4053 22.75 14.0336V14.0336V14V10V9.96642V9.96637C22.75 8.59469 22.75 7.51927 22.6794 6.65494C22.6075 5.77479 22.4586 5.04769 22.1233 4.38955C21.572 3.30762 20.6924 2.42798 19.6104 1.87671C18.9523 1.54138 18.2252 1.39252 17.3451 1.32061C16.4807 1.24999 15.4053 1.25 14.0336 1.25L14 1.25H10ZM5.07054 3.21322C5.48197 3.00359 5.9897 2.87996 6.77708 2.81563C7.57322 2.75058 8.58749 2.75 10 2.75H14C15.4125 2.75 16.4268 2.75058 17.2229 2.81563C18.0103 2.87996 18.518 3.00359 18.9295 3.21322C19.7291 3.62068 20.3793 4.27085 20.7868 5.07054C20.9964 5.48197 21.12 5.9897 21.1844 6.77708C21.2494 7.57322 21.25 8.58749 21.25 10V14C21.25 15.4125 21.2494 16.4268 21.1844 17.2229C21.12 18.0103 20.9964 18.518 20.7868 18.9295C20.3793 19.7291 19.7291 20.3793 18.9295 20.7868C18.518 20.9964 18.0103 21.12 17.2229 21.1844C16.4268 21.2494 15.4125 21.25 14 21.25H10C8.58749 21.25 7.57322 21.2494 6.77708 21.1844C5.9897 21.12 5.48197 20.9964 5.07054 20.7868C4.27085 20.3793 3.62068 19.7291 3.21322 18.9295C3.00359 18.518 2.87996 18.0103 2.81563 17.2229C2.75058 16.4268 2.75 15.4125 2.75 14V10C2.75 8.58749 2.75058 7.57322 2.81563 6.77708C2.87996 5.9897 3.00359 5.48197 3.21322 5.07054C3.62068 4.27085 4.27085 3.62068 5.07054 3.21322ZM10 7.25C9.58579 7.25 9.25 7.58579 9.25 8C9.25 8.41421 9.58579 8.75 10 8.75H14.1893L7.46967 15.4697C7.17678 15.7626 7.17678 16.2374 7.46967 16.5303C7.76256 16.8232 8.23744 16.8232 8.53033 16.5303L15.25 9.81066V14C15.25 14.4142 15.5858 14.75 16 14.75C16.4142 14.75 16.75 14.4142 16.75 14V8C16.75 7.58579 16.4142 7.25 16 7.25H10Z" fill="#171717"></path></svg>