<svg xmlns:xlink="http://www.w3.org/1999/xlink" class="mx-auto h-8 w-8 text-gray-900" viewBox="0 0 24 24" fill="currentColor" xmlns="http://www.w3.org/2000/svg" width="32"  height="32" ><path opacity="0.12" fill-rule="evenodd" clip-rule="evenodd" d="M2.11052 12.2769C2 11.8166 2 11.3274 2 10.349V9.4C2 7.15979 2 6.03969 2.43597 5.18404C2.81947 4.43139 3.43139 3.81947 4.18404 3.43597C5.03969 3 6.15979 3 8.4 3H9.34903C10.3274 3 10.8166 3 11.2769 3.11052C11.6851 3.20851 12.0753 3.37012 12.4331 3.58944C12.8368 3.83681 13.1827 4.18271 13.8745 4.87452L16.4745 7.47452C18.0586 9.05859 18.8506 9.85062 19.1474 10.7639C19.4084 11.5673 19.4084 12.4327 19.1474 13.2361C18.8506 14.1494 18.0586 14.9414 16.4745 16.5255L15.5255 17.4745C13.9414 19.0586 13.1494 19.8506 12.2361 20.1474C11.4327 20.4084 10.5673 20.4084 9.76393 20.1474C8.85062 19.8506 8.05858 19.0586 6.47452 17.4745L3.87451 14.8745L3.87451 14.8745C3.18271 14.1827 2.83681 13.8368 2.58944 13.4331C2.37012 13.0753 2.20851 12.6851 2.11052 12.2769ZM9 12C10.1046 12 11 11.1046 11 10C11 8.89543 10.1046 8 9 8C7.89543 8 7 8.89543 7 10C7 11.1046 7.89543 12 9 12Z" fill="#171717"></path><path fill-rule="evenodd" clip-rule="evenodd" d="M14.9697 1.96967C15.2626 1.67678 15.7375 1.67678 16.0304 1.96967L16.5304 2.46967L17.6108 3.55008L17.635 3.57428L17.635 3.57429L17.635 3.57437C19.0006 4.93991 20.058 5.99727 20.8357 6.91344C21.6238 7.84173 22.1688 8.6743 22.4712 9.60512C22.977 11.1617 22.977 12.8383 22.4712 14.3949C22.1688 15.3257 21.6238 16.1583 20.8357 17.0866C20.058 18.0027 19.0006 19.0601 17.635 20.4256L17.635 20.4256L17.635 20.4257L17.6108 20.4499L16.0304 22.0303L15.5304 22.5303C15.2375 22.8232 14.7626 22.8232 14.4697 22.5303C14.1768 22.2374 14.1768 21.7626 14.4697 21.4697L14.9697 20.9697L16.5501 19.3893C17.9449 17.9945 18.9587 16.9798 19.6922 16.1158C20.42 15.2585 20.8278 14.5988 21.0446 13.9314C21.4525 12.6761 21.4525 11.3239 21.0446 10.0686C20.8278 9.40116 20.42 8.74155 19.6922 7.88421C18.9587 7.02017 17.9449 6.00555 16.5501 4.61074L15.4697 3.53033L14.9697 3.03033C14.6768 2.73744 14.6768 2.26256 14.9697 1.96967ZM9.00002 8.75C8.30967 8.75 7.75002 9.30964 7.75002 10C7.75002 10.6904 8.30967 11.25 9.00002 11.25C9.69038 11.25 10.25 10.6904 10.25 10C10.25 9.30964 9.69038 8.75 9.00002 8.75ZM6.25002 10C6.25002 8.48122 7.48124 7.25 9.00002 7.25C10.5188 7.25 11.75 8.48122 11.75 10C11.75 11.5188 10.5188 12.75 9.00002 12.75C7.48124 12.75 6.25002 11.5188 6.25002 10ZM9.34905 3.75C10.3631 3.75 10.7479 3.75482 11.1019 3.8398C11.4335 3.91941 11.7505 4.05073 12.0413 4.22892C12.3517 4.41912 12.6272 4.6878 13.3442 5.40485L15.9442 8.00485C16.745 8.80563 17.3133 9.37474 17.722 9.85614C18.1249 10.3308 18.3285 10.6707 18.4341 10.9957C18.6462 11.6484 18.6462 12.3516 18.4341 13.0043C18.3285 13.3293 18.1249 13.6692 17.722 14.1439C17.3133 14.6253 16.745 15.1944 15.9442 15.9952L14.9952 16.9442C14.1944 17.745 13.6253 18.3133 13.1439 18.7219C12.6692 19.1249 12.3293 19.3285 12.0043 19.4341C11.3516 19.6462 10.6485 19.6462 9.99572 19.4341C9.67072 19.3285 9.33087 19.1249 8.85616 18.7219C8.37476 18.3133 7.80565 17.745 7.00487 16.9442L4.40487 14.3442C3.68782 13.6271 3.41914 13.3516 3.22894 13.0413C3.05075 12.7505 2.91943 12.4335 2.83982 12.1018C2.75484 11.7479 2.75002 11.3631 2.75002 10.349V9.4C2.75002 8.26752 2.7506 7.46326 2.80203 6.83388C2.85273 6.21325 2.94911 5.829 3.10425 5.52453C3.41584 4.913 3.91303 4.41582 4.52455 4.10423C4.82902 3.94909 5.21328 3.85271 5.8339 3.80201C6.46329 3.75058 7.26754 3.75 8.40002 3.75H9.34905ZM11.452 2.38124C10.9043 2.24974 10.3314 2.24984 9.44258 2.24999L9.34905 2.25H8.40002L8.36702 2.25C7.27488 2.24999 6.40938 2.24999 5.71175 2.30699C4.99837 2.36527 4.39474 2.48688 3.84357 2.76772C2.9498 3.22312 2.22314 3.94978 1.76774 4.84355C1.4869 5.39472 1.36529 5.99834 1.30701 6.71173C1.25001 7.40936 1.25002 8.27486 1.25002 9.367L1.25002 9.4V10.349L1.25001 10.4426C1.24986 11.3314 1.24976 11.9042 1.38126 12.452C1.49762 12.9367 1.68954 13.4 1.94998 13.825C2.24432 14.3053 2.64944 14.7103 3.27806 15.3387L3.27807 15.3387L3.34421 15.4048L5.94421 18.0048L5.96756 18.0282C6.73981 18.8005 7.3518 19.4125 7.8854 19.8654C8.43105 20.3287 8.94387 20.6695 9.53219 20.8607C10.4862 21.1706 11.5138 21.1706 12.4679 20.8607C13.0562 20.6695 13.569 20.3287 14.1146 19.8654C14.6482 19.4125 15.2602 18.8005 16.0325 18.0282L16.0325 18.0282L16.0558 18.0049L17.0049 17.0558L17.0282 17.0325C17.8005 16.2602 18.4125 15.6482 18.8655 15.1146C19.3287 14.569 19.6695 14.0562 19.8607 13.4678C20.1707 12.5138 20.1707 11.4862 19.8607 10.5322C19.6695 9.94385 19.3287 9.43103 18.8655 8.88538C18.4125 8.35177 17.8005 7.73977 17.0282 6.96751L17.0049 6.94419L14.4049 4.34419L14.3387 4.27805C13.7103 3.64942 13.3054 3.2443 12.825 2.94996C12.4 2.68952 11.9367 2.4976 11.452 2.38124Z" fill="#171717"></path></svg>