<svg xmlns:xlink="http://www.w3.org/1999/xlink" class="mx-auto h-8 w-8 text-gray-900" viewBox="0 0 24 24" fill="currentColor" xmlns="http://www.w3.org/2000/svg" width="32"  height="32" ><rect opacity="0.12" x="2" y="2" width="20" height="20" rx="5" fill="#171717"></rect><path fill-rule="evenodd" clip-rule="evenodd" d="M9.96644 1.25L10 1.25L14 1.25L14.0336 1.25C15.4053 1.25 16.4807 1.24999 17.3451 1.32061C18.2252 1.39252 18.9523 1.54138 19.6104 1.87672C20.6924 2.42799 21.572 3.30763 22.1233 4.38956C22.4586 5.04769 22.6075 5.7748 22.6794 6.65494C22.75 7.51922 22.75 8.59456 22.75 9.96613L22.75 9.96618L22.75 9.96623L22.75 9.96628L22.75 9.96633L22.75 9.96638L22.75 9.96642L22.75 10L22.75 14L22.75 14.0336C22.75 15.4053 22.75 16.4807 22.6794 17.3451C22.6075 18.2252 22.4586 18.9523 22.1233 19.6104C21.572 20.6924 20.6924 21.572 19.6104 22.1233C18.9523 22.4586 18.2252 22.6075 17.3451 22.6794C16.4808 22.75 15.4054 22.75 14.0339 22.75L14.0338 22.75L14.0338 22.75L14.0337 22.75L14.0337 22.75L14.0336 22.75L14.0336 22.75L14 22.75L10 22.75L9.96642 22.75C8.59471 22.75 7.51928 22.75 6.65493 22.6794C5.77479 22.6075 5.04768 22.4586 4.38955 22.1233C3.30762 21.572 2.42798 20.6924 1.87671 19.6104C1.54138 18.9523 1.39252 18.2252 1.32061 17.3451C1.24999 16.4807 1.24999 15.4053 1.25 14.0336L1.25 14.0336L1.25 14L1.25 10L1.25 9.96644C1.24999 8.59472 1.24999 7.51929 1.32061 6.65494C1.39252 5.7748 1.54138 5.04769 1.87671 4.38956C2.42798 3.30763 3.30762 2.42799 4.38955 1.87672C5.04768 1.54138 5.77479 1.39252 6.65493 1.32061C7.51928 1.24999 8.5947 1.25 9.96641 1.25L9.96644 1.25ZM6.77708 2.81563C5.9897 2.87996 5.48197 3.00359 5.07054 3.21322C4.27085 3.62069 3.62068 4.27085 3.21322 5.07054C3.00359 5.48197 2.87996 5.98971 2.81563 6.77709C2.75058 7.57322 2.75 8.5875 2.75 10L2.75 14C2.75 15.4125 2.75058 16.4268 2.81563 17.2229C2.87996 18.0103 3.00359 18.518 3.21322 18.9295C3.62068 19.7292 4.27085 20.3793 5.07054 20.7868C5.48197 20.9964 5.9897 21.12 6.77708 21.1844C7.57322 21.2494 8.58749 21.25 10 21.25L14 21.25C15.4125 21.25 16.4268 21.2494 17.2229 21.1844C18.0103 21.12 18.518 20.9964 18.9295 20.7868C19.7291 20.3793 20.3793 19.7292 20.7868 18.9295C20.9964 18.518 21.12 18.0103 21.1844 17.2229C21.2494 16.4268 21.25 15.4125 21.25 14L21.25 10C21.25 8.5875 21.2494 7.57322 21.1844 6.77709C21.12 5.98971 20.9964 5.48197 20.7868 5.07054C20.3793 4.27085 19.7291 3.62069 18.9295 3.21322C18.518 3.00359 18.0103 2.87996 17.2229 2.81563C16.4268 2.75059 15.4125 2.75 14 2.75L10 2.75C8.58749 2.75 7.57322 2.75059 6.77708 2.81563ZM9.25 17C9.25 16.5858 9.58579 16.25 10 16.25L18 16.25C18.4142 16.25 18.75 16.5858 18.75 17C18.75 17.4142 18.4142 17.75 18 17.75L10 17.75C9.58579 17.75 9.25 17.4142 9.25 17ZM10 11.25C9.58579 11.25 9.25 11.5858 9.25 12C9.25 12.4142 9.58579 12.75 10 12.75L18 12.75C18.4142 12.75 18.75 12.4142 18.75 12C18.75 11.5858 18.4142 11.25 18 11.25L10 11.25ZM9.25 7C9.25 6.58579 9.58579 6.25 10 6.25L18 6.25C18.4142 6.25 18.75 6.58579 18.75 7C18.75 7.41421 18.4142 7.75 18 7.75L10 7.75C9.58579 7.75 9.25 7.41421 9.25 7ZM6 8C6.55229 8 7 7.55228 7 7C7 6.44772 6.55228 6 6 6C5.44772 6 5 6.44772 5 7C5 7.55228 5.44772 8 6 8ZM7 12C7 12.5523 6.55229 13 6 13C5.44772 13 5 12.5523 5 12C5 11.4477 5.44772 11 6 11C6.55228 11 7 11.4477 7 12ZM6 18C6.55229 18 7 17.5523 7 17C7 16.4477 6.55229 16 6 16C5.44772 16 5 16.4477 5 17C5 17.5523 5.44772 18 6 18Z" fill="#171717"></path></svg>