<svg xmlns:xlink="http://www.w3.org/1999/xlink" class="mx-auto h-8 w-8 text-gray-900" viewBox="0 0 24 24" fill="currentColor" xmlns="http://www.w3.org/2000/svg" width="32"  height="32" ><path opacity="0.12" d="M3 9.4C3 7.15979 3 6.03968 3.43597 5.18404C3.81947 4.43139 4.43139 3.81947 5.18404 3.43597C6.03968 3 7.15979 3 9.4 3H17.8C18.9201 3 19.4802 3 19.908 3.21799C20.2843 3.40973 20.5903 3.71569 20.782 4.09202C21 4.51984 21 5.0799 21 6.2V9H15V17H3V9.4Z" fill="#171717"></path><path fill-rule="evenodd" clip-rule="evenodd" d="M9.4 2.25H9.367C8.27485 2.24999 7.40936 2.24999 6.71173 2.30699C5.99834 2.36527 5.39472 2.48688 4.84354 2.76772C3.94978 3.22312 3.22312 3.94978 2.76772 4.84355C2.48688 5.39472 2.36527 5.99835 2.30699 6.71173C2.24999 7.40936 2.24999 8.27486 2.25 9.367L2.25 9.4V16.25H1.44444C0.784771 16.25 0.25 16.7848 0.25 17.4444C0.25 19.8223 2.17766 21.75 4.55556 21.75H18.1157H18.1695H18.2H19H19.8H19.8305C20.3646 21.75 20.8104 21.75 21.1747 21.7203C21.5546 21.6892 21.9112 21.6221 22.2485 21.4503C22.7659 21.1866 23.1866 20.7659 23.4503 20.2485C23.6221 19.9112 23.6892 19.5546 23.7203 19.1747C23.75 18.8104 23.75 18.3646 23.75 17.8305V17.8V12.2V12.1695C23.75 11.6354 23.75 11.1896 23.7203 10.8253C23.6892 10.4454 23.6221 10.0888 23.4503 9.75153C23.1866 9.23408 22.7659 8.81338 22.2485 8.54973C21.9112 8.37789 21.5546 8.31078 21.1747 8.27974C20.8104 8.24998 20.3646 8.24999 19.8305 8.25H19.8304L19.8 8.25H18.2L18.1696 8.25H18.1695C17.6354 8.24999 17.1896 8.24998 16.8253 8.27974C16.4454 8.31078 16.0888 8.37789 15.7515 8.54973C15.2341 8.81338 14.8134 9.23408 14.5497 9.75153C14.3779 10.0888 14.3108 10.4454 14.2797 10.8253C14.25 11.1896 14.25 11.6354 14.25 12.1696V12.2V16.25H3.75V9.4C3.75 8.26752 3.75058 7.46327 3.80201 6.83388C3.85271 6.21325 3.94909 5.829 4.10423 5.52453C4.41582 4.913 4.913 4.41582 5.52453 4.10423C5.829 3.94909 6.21325 3.85271 6.83388 3.80201C7.46326 3.75058 8.26752 3.75 9.4 3.75H18.5C19.4665 3.75 20.25 4.5335 20.25 5.5V6C20.25 6.41421 20.5858 6.75 21 6.75C21.4142 6.75 21.75 6.41421 21.75 6V5.5C21.75 3.70507 20.2949 2.25 18.5 2.25H9.4ZM19 20.25H18.2C17.6276 20.25 17.2434 20.2494 16.9475 20.2252C16.6604 20.2018 16.5231 20.1599 16.4325 20.1138C16.1973 19.9939 16.0061 19.8027 15.8862 19.5675C15.8401 19.4769 15.7982 19.3396 15.7748 19.0525C15.7506 18.7566 15.75 18.3724 15.75 17.8V17V12.2C15.75 11.6276 15.7506 11.2434 15.7748 10.9475C15.7982 10.6604 15.8401 10.5231 15.8862 10.4325C16.0061 10.1973 16.1973 10.0061 16.4325 9.88624C16.5231 9.8401 16.6604 9.79822 16.9475 9.77476C17.2434 9.75058 17.6276 9.75 18.2 9.75H19.8C20.3724 9.75 20.7566 9.75058 21.0525 9.77476C21.3396 9.79822 21.4769 9.8401 21.5675 9.88624C21.8027 10.0061 21.9939 10.1973 22.1138 10.4325C22.1599 10.5231 22.2018 10.6604 22.2252 10.9475C22.2494 11.2434 22.25 11.6276 22.25 12.2V17.8C22.25 18.3724 22.2494 18.7566 22.2252 19.0525C22.2018 19.3396 22.1599 19.4769 22.1138 19.5675C21.9939 19.8027 21.8027 19.9939 21.5675 20.1138C21.4769 20.1599 21.3396 20.2018 21.0525 20.2252C20.7566 20.2494 20.3724 20.25 19.8 20.25H19ZM14.25 17.8V17.75H3H1.76645C1.9187 19.1557 3.10934 20.25 4.55556 20.25H14.5505L14.5497 20.2485C14.3779 19.9112 14.3108 19.5546 14.2797 19.1747C14.25 18.8104 14.25 18.3646 14.25 17.8304V17.8ZM19 13C19.5523 13 20 12.5523 20 12C20 11.4477 19.5523 11 19 11C18.4477 11 18 11.4477 18 12C18 12.5523 18.4477 13 19 13Z" fill="#171717"></path></svg>